<svg width="37" height="33" viewBox="0 0 37 33" fill="none" xmlns="http://www.w3.org/2000/svg">
<g clip-path="url(#clip0_4710_542)">
<path d="M36.7141 8.19509C36.7141 5.93503 34.8848 4.09753 32.6348 4.09753H13.0858C12.0022 4.09753 10.9633 4.5265 10.1984 5.29479L0.599154 14.9433C0.216715 15.3274 0 15.846 0 16.3902C0 16.9344 0.216715 17.453 0.599154 17.8372L10.1984 27.4856C10.9633 28.2539 12.0022 28.6829 13.0858 28.6829H32.6348C34.8848 28.6829 36.7141 26.8454 36.7141 24.5853V8.19509ZM17.2735 11.2042C17.8726 10.6024 18.8415 10.6024 19.4343 11.2042L22.43 14.2134L25.4258 11.2042C26.025 10.6024 26.9938 10.6024 27.5866 11.2042C28.1794 11.8061 28.1858 12.7792 27.5866 13.3747L24.5908 16.3838L27.5866 19.393C28.1858 19.9948 28.1858 20.968 27.5866 21.5634C26.9874 22.1588 26.0186 22.1652 25.4258 21.5634L22.43 18.5542L19.4343 21.5634C18.8351 22.1652 17.8663 22.1652 17.2735 21.5634C16.6807 20.9616 16.6743 19.9884 17.2735 19.393L20.2693 16.3838L17.2735 13.3747C16.6743 12.7728 16.6743 11.7997 17.2735 11.2042Z" fill="black"/>
</g>
<defs>
<clipPath id="clip0_4710_542">
<rect width="36.7141" height="32.7805" fill="white"/>
</clipPath>
</defs>
</svg>
