<svg width="72" height="72" viewBox="0 0 72 72" fill="none" xmlns="http://www.w3.org/2000/svg">
<path d="M2.01276 2.01276C3.30192 0.723989 5.05016 0 6.87303 0C8.6959 0 10.4441 0.723989 11.7333 2.01276L36.0415 26.321L60.3497 2.01276C61.6463 0.760514 63.3828 0.0676035 65.1852 0.0832665C66.9877 0.0989295 68.7119 0.821913 69.9865 2.0965C71.2611 3.37109 71.9841 5.0953 71.9997 6.89777C72.0154 8.70024 71.3225 10.4368 70.0703 11.7333L45.762 36.0415L70.0703 60.3497C71.3225 61.6463 72.0154 63.3828 71.9997 65.1852C71.9841 66.9877 71.2611 68.7119 69.9865 69.9865C68.7119 71.2611 66.9877 71.9841 65.1852 71.9997C63.3828 72.0154 61.6463 71.3225 60.3497 70.0703L36.0415 45.762L11.7333 70.0703C10.4368 71.3225 8.70024 72.0154 6.89777 71.9997C5.0953 71.9841 3.37109 71.2611 2.0965 69.9865C0.821913 68.7119 0.0989295 66.9877 0.0832665 65.1852C0.0676035 63.3828 0.760514 61.6463 2.01276 60.3497L26.321 36.0415L2.01276 11.7333C0.723989 10.4441 0 8.6959 0 6.87303C0 5.05016 0.723989 3.30192 2.01276 2.01276Z" fill="black"/>
</svg>
