<svg width="15" height="15" viewBox="0 0 15 15" fill="none" xmlns="http://www.w3.org/2000/svg">
<g clip-path="url(#clip0_4518_360)">
<path d="M10.626 0.56543L9.20805 1.9834L13.0166 5.79199L14.4346 4.37402C15.167 3.6416 15.167 2.45508 14.4346 1.72266L13.2803 0.56543C12.5479 -0.166992 11.3614 -0.166992 10.6289 0.56543H10.626ZM8.54594 2.64551L1.71684 9.47754C1.41215 9.78223 1.18949 10.1602 1.06645 10.5732L0.029338 14.0977C-0.0439042 14.3467 0.0234786 14.6133 0.205119 14.7949C0.38676 14.9766 0.653361 15.0439 0.899455 14.9736L4.42387 13.9365C4.83696 13.8135 5.21488 13.5908 5.51957 13.2861L12.3545 6.4541L8.54594 2.64551Z" fill="black"/>
</g>
<defs>
<clipPath id="clip0_4518_360">
<rect width="15" height="15" fill="white"/>
</clipPath>
</defs>
</svg>
