<svg width="22" height="18" viewBox="0 0 22 18" fill="none" xmlns="http://www.w3.org/2000/svg">
<g clip-path="url(#clip0_4949_395)">
<path d="M10.8325 5.69854L13.9818 8.68275L13.9968 8.52643C13.9968 6.95852 12.6521 5.68433 10.9975 5.68433L10.8325 5.69854Z" fill="black"/>
<path d="M10.9975 3.78943C13.7568 3.78943 15.9963 5.91155 15.9963 8.52629C15.9963 9.13734 15.8664 9.71998 15.6414 10.2552L18.5657 13.0263C20.0754 11.8326 21.2651 10.2884 22 8.52629C20.2654 4.36735 16.0013 1.42102 10.9975 1.42102C9.5978 1.42102 8.25814 1.65785 7.01343 2.08416L9.17293 4.12573C9.73774 3.91732 10.3526 3.78943 10.9975 3.78943Z" fill="black"/>
<path d="M0.999755 1.2079L3.27923 3.3679L3.73414 3.79897C2.08452 5.02107 0.779821 6.64582 0 8.52632C1.72962 12.6853 5.99863 15.6316 10.9975 15.6316C12.5472 15.6316 14.0268 15.3474 15.3815 14.8311L15.8064 15.2337L18.7208 18L19.9955 16.7969L2.27446 0L0.999755 1.2079ZM6.52852 6.44213L8.07317 7.90581C8.02818 8.10951 7.99818 8.31317 7.99818 8.52632C7.99818 10.0942 9.34286 11.3684 10.9975 11.3684C11.2224 11.3684 11.4374 11.34 11.6474 11.2974L13.192 12.7611C12.5271 13.0737 11.7873 13.2632 10.9975 13.2632C8.23813 13.2632 5.99863 11.1411 5.99863 8.52632C5.99863 7.77792 6.1986 7.07685 6.52852 6.44213Z" fill="black"/>
</g>
<defs>
<clipPath id="clip0_4949_395">
<rect width="22" height="18" fill="white"/>
</clipPath>
</defs>
</svg>
