<svg width="18" height="20" viewBox="0 0 18 20" fill="none" xmlns="http://www.w3.org/2000/svg">
<g clip-path="url(#clip0_4710_952)">
<path d="M8.99996 0C8.2888 0 7.71424 0.558594 7.71424 1.25V2C4.78121 2.57812 2.57138 5.10156 2.57138 8.125V9.11719C2.57138 10.8906 1.94862 12.6133 0.811563 13.9961L0.212903 14.7266C-0.0201332 15.0078 -0.0643297 15.3945 0.0963846 15.7188C0.257099 16.043 0.594599 16.25 0.964242 16.25H17.0357C17.4053 16.25 17.7428 16.043 17.9035 15.7188C18.0642 15.3945 18.02 15.0078 17.787 14.7266L17.1883 14C16.0513 12.6133 15.4285 10.8906 15.4285 9.11719V8.125C15.4285 5.10156 13.2187 2.57812 10.2857 2V1.25C10.2857 0.558594 9.71112 0 8.99996 0ZM8.99996 3.75C11.487 3.75 13.5 5.70703 13.5 8.125V9.11719C13.5 10.9883 14.0584 12.8125 15.095 14.375H2.90487C3.94147 12.8125 4.49996 10.9883 4.49996 9.11719V8.125C4.49996 5.70703 6.5129 3.75 8.99996 3.75ZM11.5714 17.5H8.99996H6.42853C6.42853 18.1641 6.69772 18.8008 7.17987 19.2695C7.66201 19.7383 8.31692 20 8.99996 20C9.68299 20 10.3379 19.7383 10.82 19.2695C11.3022 18.8008 11.5714 18.1641 11.5714 17.5Z" fill="black"/>
</g>
<defs>
<clipPath id="clip0_4710_952">
<rect width="18" height="20" fill="white"/>
</clipPath>
</defs>
</svg>
