<svg width="20" height="20" viewBox="0 0 20 20" fill="none" xmlns="http://www.w3.org/2000/svg">
<g clip-path="url(#clip0_4710_949)">
<path fill-rule="evenodd" clip-rule="evenodd" d="M10.0002 6.66666C8.15926 6.66666 6.66687 8.15904 6.66687 9.99999C6.66687 11.8409 8.15926 13.3333 10.0002 13.3333C11.8412 13.3333 13.3335 11.8409 13.3335 9.99999C13.3335 8.15904 11.8412 6.66666 10.0002 6.66666ZM8.3335 9.99999C8.3335 9.07949 9.07975 8.33332 10.0002 8.33332C10.9207 8.33332 11.6668 9.07949 11.6668 9.99999C11.6668 10.9205 10.9207 11.6667 10.0002 11.6667C9.07975 11.6667 8.3335 10.9205 8.3335 9.99999Z" fill="black"/>
<path fill-rule="evenodd" clip-rule="evenodd" d="M9.40556 0.416656C8.23817 0.416656 7.20506 1.22286 6.9764 2.38003L6.91051 2.71351C6.75405 3.50531 5.88494 4.02548 5.03757 3.7401L4.70685 3.62871C3.60203 3.25662 2.36559 3.69139 1.76528 4.69943L1.17075 5.69778C0.564754 6.71537 0.79527 8.00405 1.69937 8.76182L1.96426 8.98382C2.6078 9.52324 2.6078 10.4767 1.96426 11.0162L1.69937 11.2382C0.79527 11.9959 0.564754 13.2846 1.17075 14.3022L1.76525 15.3005C2.36558 16.3086 3.60206 16.7433 4.7069 16.3712L5.03753 16.2598C5.8849 15.9744 6.75406 16.4946 6.91051 17.2864L6.97641 17.6199C7.20506 18.7771 8.23818 19.5833 9.40556 19.5833H10.5946C11.7621 19.5833 12.7952 18.7771 13.0239 17.6198L13.0897 17.2865C13.2461 16.4947 14.1153 15.9744 14.9627 16.2598L15.2934 16.3712C16.3982 16.7433 17.6347 16.3086 18.2351 15.3005L18.8296 14.3022C19.4356 13.2847 19.205 11.9959 18.3009 11.2382L18.036 11.0162C17.3924 10.4768 17.3924 9.52316 18.036 8.98382L18.3009 8.76182C19.205 8.00407 19.4356 6.71536 18.8296 5.69776L18.2351 4.69942C17.6347 3.69139 16.3983 3.25661 15.2935 3.62869L14.9626 3.74011C14.1153 4.02548 13.2461 3.50527 13.0897 2.71346L13.0239 2.38012C12.7952 1.22291 11.7621 0.416656 10.5946 0.416656H9.40556ZM8.61148 2.70311C8.67906 2.36111 8.99856 2.08332 9.40556 2.08332H10.5946C11.0017 2.08332 11.3212 2.36112 11.3888 2.70314L11.4546 3.03648C11.8159 4.86508 13.7424 5.90971 15.4946 5.3196L15.8254 5.20819C16.2079 5.07938 16.6161 5.23828 16.8031 5.55219L17.3976 6.55052C17.5788 6.85488 17.5173 7.24391 17.2303 7.48445L16.9655 7.70643C15.5271 8.91191 15.5271 11.0881 16.9655 12.2936L17.2303 12.5155C17.5173 12.7561 17.5788 13.1451 17.3976 13.4495L16.8031 14.4477C16.6161 14.7617 16.2079 14.9206 15.8254 14.7917L15.4946 14.6803C13.7424 14.0902 11.8159 15.1348 11.4546 16.9635L11.3888 17.2968C11.3212 17.6388 11.0017 17.9167 10.5946 17.9167H9.40556C8.99856 17.9167 8.67906 17.6389 8.61148 17.2968L8.54556 16.9633C8.18425 15.1347 6.25774 14.0902 4.50552 14.6804L4.1749 14.7917C3.79241 14.9206 3.38418 14.7617 3.19724 14.4477L2.60273 13.4494C2.42148 13.1451 2.48297 12.7561 2.76996 12.5155L3.03485 12.2935C4.47316 11.088 4.47315 8.91199 3.03485 7.70648L2.76996 7.48446C2.48297 7.24393 2.42148 6.85491 2.60273 6.55055L3.19726 5.55221C3.3842 5.23829 3.79242 5.07939 4.1749 5.20821L4.50561 5.31959C6.2578 5.90971 8.18425 4.86515 8.54556 3.03659L8.61148 2.70311Z" fill="black"/>
</g>
<defs>
<clipPath id="clip0_4710_949">
<rect width="20" height="20" fill="white"/>
</clipPath>
</defs>
</svg>
