<svg width="22" height="18" viewBox="0 0 22 18" fill="none" xmlns="http://www.w3.org/2000/svg">
<path d="M10.5482 2C7.58857 2 5.21868 3.19929 3.49347 4.6267C1.77924 6.04107 0.632762 7.73571 0.0906562 8.89915C-0.0302187 9.15661 -0.0302187 9.44339 0.0906562 9.70085C0.632762 10.8643 1.77924 12.5589 3.49347 13.9733C5.21868 15.4007 7.58857 16.6 10.5482 16.6C13.5078 16.6 15.8777 15.4007 17.6029 13.9733C19.3171 12.5557 20.4636 10.8643 21.0093 9.70085C21.1302 9.44339 21.1302 9.15661 21.0093 8.89915C20.4636 7.73571 19.3171 6.04107 17.6029 4.6267C15.8777 3.19929 13.5078 2 10.5482 2ZM15.8227 9.3C15.8227 11.8909 13.4602 13.9929 10.5482 13.9929C7.63618 13.9929 5.27363 11.8909 5.27363 9.3C5.27363 6.70915 7.63618 4.60714 10.5482 4.60714C13.4602 4.60714 15.8227 6.70915 15.8227 9.3ZM10.5482 7.21429C10.5482 8.36469 9.49692 9.3 8.20393 9.3C7.7827 9.3 7.38711 9.20223 7.04646 9.02625C7.03913 9.1175 7.03181 9.20549 7.03181 9.3C7.03181 11.0272 8.60684 12.4286 10.5482 12.4286C12.4895 12.4286 14.0645 11.0272 14.0645 9.3C14.0645 7.57277 12.4895 6.17143 10.5482 6.17143C10.4456 6.17143 10.343 6.17469 10.2405 6.18446C10.4346 6.48754 10.5482 6.83951 10.5482 7.21429Z" fill="black"/>
</svg>
