<svg width="180" height="220" viewBox="0 0 180 220" fill="none" xmlns="http://www.w3.org/2000/svg">
<path d="M1.39899 215.803C1.39899 215.803 -6.42841 218.428 14.9464 219.235C36.3212 220.043 149.216 220.447 160.857 219.235C172.498 218.024 195.077 218.731 165.072 215.803C135.067 212.875 104.159 214.591 73.953 212.875C43.7472 211.058 5.9148 212.673 1.39899 215.803Z" fill="#1B1C1E"/>
<path d="M69.8389 11.1565C69.8389 11.1565 60.0045 0.858616 50.9729 0.0509354C41.3392 -0.857706 39.2318 10.4498 47.862 29.2284C47.862 29.2284 65.0221 22.767 69.8389 11.1565Z" fill="#F6EBEF"/>
<path d="M65.1224 18.0217C58.2985 25.2909 47.862 29.2283 47.862 29.2283C42.3426 17.315 41.1384 8.43053 43.4465 3.78637C43.6472 3.58445 47.5609 0.454684 54.6858 6.71421C59.2016 10.5507 62.9146 15.0939 65.1224 18.0217Z" fill="#EAD6DE"/>
<path d="M111.384 13.1758C111.384 13.1758 127.34 0.555831 134.766 4.59424C142.192 8.63264 133.16 29.7333 130.551 33.6707C128.043 37.5072 108.374 19.8392 111.384 13.1758Z" fill="#F6EBEF"/>
<path d="M130.652 33.6707C129.147 35.8918 121.922 30.9447 116.703 25.089C118.811 21.3535 123.628 13.3777 128.244 10.147C133.562 6.51239 136.774 8.43063 137.576 9.03639C138.781 16.6084 132.659 30.5409 130.652 33.6707Z" fill="#EAD6DE"/>
<path d="M165.474 213.481C165.374 214.894 164.169 216.005 162.765 216.005C143.096 216.005 19.2622 215.904 17.4559 215.904C15.5492 215.904 11.7359 204.798 23.1759 200.76C23.1759 200.76 19.3626 180.366 27.8924 144.121C36.7233 106.968 50.5718 85.564 50.5718 85.564C50.5718 85.564 36.8237 77.0834 35.8202 60.9298C34.8167 44.6752 46.7585 24.887 59.4027 16.2044C71.9466 7.42091 83.487 7.31995 98.9411 8.83435C114.395 10.3488 124.33 18.4256 132.96 30.2379C141.992 42.656 146.006 60.1221 141.59 72.2373C137.978 82.1314 131.054 86.6746 131.054 86.6746C131.054 86.6746 132.96 90.1073 135.77 96.2658C140.186 105.655 146.809 121.304 152.629 140.083C153.03 141.395 153.432 142.707 153.733 144.02C154.636 147.251 155.339 150.481 156.041 153.611C157.546 160.981 158.349 168.048 158.751 174.409C159.754 190.058 158.148 201.062 158.148 201.062C158.148 201.062 166.377 203.082 165.474 213.481Z" fill="#F6EBEF"/>
<path d="M87.8012 65.3721C87.8012 65.3721 83.6868 63.9586 81.7802 61.5356C79.7731 59.1125 81.178 56.2856 87.8012 56.2856C94.8258 56.2856 95.1269 59.4154 93.2202 61.8385C91.3135 64.1605 87.8012 65.3721 87.8012 65.3721Z" fill="#1B1C1E" stroke="#1B1C1E" stroke-width="1.0185" stroke-miterlimit="10"/>
<path d="M87.8017 65.3722V70.8241C86.6979 71.127 85.6944 71.5308 84.6909 72.0356C78.7701 75.2663 73.0501 67.5934 77.7666 62.7473C78.6698 61.7377 79.874 60.93 81.3793 60.1223" stroke="#1B1C1E" stroke-width="1.0185" stroke-miterlimit="10"/>
<path d="M87.8017 65.3722V70.8241C89.1062 71.127 90.2101 71.6318 91.3139 72.2375C96.4319 75.1654 102.052 69.0068 98.74 64.1607C97.5358 62.4444 95.8298 61.031 93.321 60.1223" stroke="#1B1C1E" stroke-width="1.0185" stroke-miterlimit="10"/>
<path d="M82.6837 73.3479C82.6837 73.3479 84.9918 74.5589 87.5005 74.5589C89.8086 74.5589 93.3209 73.5497 93.3209 73.5497" stroke="#1B1C1E" stroke-width="1.0185" stroke-miterlimit="10"/>
<path d="M66.226 47.0984C63.4162 47.0984 59.8035 47.8051 57.7965 50.733C54.9867 55.0742 58.3986 60.5261 65.2225 60.6271C72.0464 60.728 75.8597 57.1944 74.6555 52.6512C73.4513 48.108 67.932 47.0984 66.226 47.0984Z" fill="#FBAF5E" stroke="#1B1C1E" stroke-miterlimit="10"/>
<path d="M66.2259 59.4155C68.7199 59.4155 70.7417 56.839 70.7417 53.6607C70.7417 50.4825 68.7199 47.906 66.2259 47.906C63.7319 47.906 61.7101 50.4825 61.7101 53.6607C61.7101 56.839 63.7319 59.4155 66.2259 59.4155Z" fill="#1B1C1E"/>
<path d="M109.979 47.0984C112.789 47.0984 116.402 47.8051 118.409 50.733C121.219 55.0742 117.807 60.5261 110.983 60.6271C104.159 60.728 100.346 57.1944 101.55 52.6512C102.754 48.108 108.273 47.0984 109.979 47.0984Z" fill="#FBAF5E" stroke="#1B1C1E" stroke-miterlimit="10"/>
<path d="M109.979 59.4155C112.418 59.4155 114.395 56.839 114.395 53.6607C114.395 50.4825 112.418 47.906 109.979 47.906C107.541 47.906 105.564 50.4825 105.564 53.6607C105.564 56.839 107.541 59.4155 109.979 59.4155Z" fill="#1B1C1E"/>
<path d="M37.9273 167.039C37.9273 167.039 45.3533 214.591 48.3639 216.005" stroke="#1B1C1E" stroke-miterlimit="10"/>
<path d="M79.2718 215.904C79.2718 215.904 79.7736 209.038 74.9567 206.212C70.1399 203.486 70.1399 201.366 69.6381 190.26C69.1363 179.255 69.6381 128.573 69.6381 128.573" stroke="#1B1C1E" stroke-miterlimit="10"/>
<path d="M121.921 215.904C121.921 215.904 125.835 213.178 132.859 164.515" stroke="#1B1C1E" stroke-miterlimit="10"/>
<path d="M72.047 216.005C72.047 216.005 72.348 211.865 69.9396 209.745" stroke="#1B1C1E" stroke-miterlimit="10"/>
<path d="M61.6102 215.904C61.6102 215.904 61.1085 213.582 59.4025 212.875" stroke="#1B1C1E" stroke-miterlimit="10"/>
<path d="M101.651 215.904C101.651 215.904 101.049 212.067 103.256 209.745" stroke="#1B1C1E" stroke-miterlimit="10"/>
<path d="M110.481 215.904C110.481 215.904 110.782 212.269 112.087 211.159" stroke="#1B1C1E" stroke-miterlimit="10"/>
<path d="M158.048 201.063C158.048 201.063 147.21 198.438 140.286 204.192" stroke="#1B1C1E" stroke-miterlimit="10"/>
<path d="M156.944 208.534C156.944 208.534 158.048 214.087 156.643 216.005" stroke="#1B1C1E" stroke-miterlimit="10"/>
<path d="M148.213 215.904C148.213 215.904 147.11 212.976 148.013 209.947" stroke="#1B1C1E" stroke-miterlimit="10"/>
<path d="M23.0751 200.759C23.0751 200.759 27.9923 198.943 32.5081 200.759" stroke="#1B1C1E" stroke-miterlimit="10"/>
<path d="M22.0716 215.904C22.0716 215.904 21.0681 211.26 23.0751 209.341" stroke="#1B1C1E" stroke-miterlimit="10"/>
<path d="M29.7991 215.904C29.7991 215.904 30.903 213.481 31.5051 211.36" stroke="#1B1C1E" stroke-miterlimit="10"/>
<path d="M153.733 144.02C142.092 145.635 129.648 136.852 127.441 121.102C125.534 107.573 132.358 99.3956 135.669 96.2659C140.085 105.655 146.708 121.304 152.528 140.083C152.93 141.395 153.331 142.708 153.733 144.02Z" fill="#513F3B"/>
<path d="M158.65 174.409C154.837 173.198 151.525 169.967 151.224 164.515C150.923 158.962 153.432 155.53 156.041 153.611C157.446 160.981 158.249 168.049 158.65 174.409Z" fill="#FBAF5E"/>
<path d="M103.356 128.674C103.356 128.674 102.854 199.346 99.1415 203.385C95.5288 207.524 92.0165 210.553 93.5218 215.803" stroke="#1B1C1E" stroke-miterlimit="10"/>
<path d="M67.5304 34.1755C59.5023 40.8389 47.6609 39.0216 41.5395 37.4062C46.0553 28.6227 52.5781 20.7478 59.3016 16.1036C65.9248 11.4595 72.247 9.23835 78.9705 8.43066C78.9705 8.43066 80.2751 23.5747 67.5304 34.1755Z" fill="#FBAF5E"/>
<mask id="mask0_4710_304" style="mask-type:luminance" maskUnits="userSpaceOnUse" x="107" y="86" width="30" height="13">
<path d="M136.07 97.0737C117.004 100.102 107.771 94.8526 107.771 94.8526C123.125 92.2276 130.953 86.6748 130.953 86.6748C130.953 86.6748 132.859 90.1074 135.669 96.266C135.769 96.4679 135.87 96.7708 136.07 97.0737Z" fill="white"/>
</mask>
<g mask="url(#mask0_4710_304)">
<g opacity="0.88">
<path d="M124.631 93.0352C124.631 92.9342 124.631 92.8333 124.631 92.7324C124.53 92.8333 124.53 92.8333 124.631 93.0352Z" fill="#443730"/>
<path d="M123.426 89.9047C123.426 89.8047 123.326 89.8047 123.326 89.8047C123.326 89.9047 123.426 89.9047 123.426 89.9047Z" fill="#443730"/>
<path d="M130.752 90.8141L130.853 90.7132C130.752 90.6123 130.752 90.7132 130.752 90.8141Z" fill="#443730"/>
<path d="M130.35 90.5105C130.45 90.4105 130.45 90.4105 130.35 90.5105V90.5105Z" fill="#443730"/>
<path d="M130.652 91.8238C130.652 91.7228 130.652 91.6219 130.652 91.521C130.551 91.6219 130.551 91.7228 130.652 91.8238Z" fill="#443730"/>
<path d="M115.7 95.0544C115.599 95.0544 115.599 95.1554 115.498 95.1554C115.7 95.2563 115.7 95.2563 115.7 95.0544Z" fill="#443730"/>
<path d="M128.745 91.5209C128.344 90.7132 128.946 91.42 128.544 90.6123C128.544 90.8142 128.444 91.0161 128.243 90.6123C128.143 90.1075 128.544 90.5113 128.243 89.8046V90.1075C127.942 89.8046 127.842 89.1988 127.842 89.2998C128.143 90.3094 127.24 89.0979 127.139 89.4008V89.2998L126.738 88.9969C126.738 88.9969 126.738 88.9969 126.738 88.896C126.738 88.9969 126.738 88.9969 126.838 89.0979C126.537 88.694 126.236 88.3912 126.035 88.5931C126.236 89.1988 125.534 88.9969 125.634 89.5017C125.634 89.2998 125.734 89.2998 125.935 89.4008L126.236 90.1075C126.035 90.2084 125.935 89.5017 125.935 90.0065C126.337 90.9152 126.236 89.9056 126.337 89.9056C126.337 90.1075 126.337 90.3094 126.337 90.5113C126.638 90.4104 127.039 90.6123 126.838 89.7036C127.039 89.9056 127.139 90.2084 127.139 90.4104C127.139 89.8046 127.541 90.8142 127.44 90.3094C127.741 91.218 127.24 90.9152 127.24 91.42C126.738 90.8142 126.638 91.6219 126.437 91.8238C126.136 91.218 126.136 90.6123 125.935 90.3094C125.534 90.0065 125.835 90.7132 125.734 91.218C125.433 91.1171 125.333 90.2084 125.032 90.3094V89.8046C124.53 88.9969 125.032 90.2084 124.831 90.1075C124.932 90.3094 125.032 90.5113 125.233 90.4104C125.333 90.7132 125.333 90.9152 125.233 90.9152C125.333 91.319 125.534 91.8238 125.233 91.7228C125.132 91.1171 124.932 91.42 124.831 91.1171V91.0161C124.731 91.218 124.53 91.218 124.53 91.319V91.218C124.53 91.42 124.731 92.1267 124.53 92.0257C124.43 91.7228 124.43 91.0161 124.229 91.1171C124.129 90.7132 124.329 90.6123 124.53 90.7132C124.329 90.6123 124.028 90.0065 124.229 89.9056C124.028 89.4008 124.129 90.2084 123.928 90.0065C124.028 90.1075 124.028 90.3094 124.129 90.5113C123.928 89.8046 123.727 90.6123 123.928 91.0161L124.028 90.6123C124.229 91.1171 124.129 91.6219 124.33 91.8238C123.928 91.0161 123.928 92.4296 123.627 91.7228L123.828 92.1267C123.326 92.0257 123.326 93.1363 123.025 93.4392C123.125 93.1363 122.824 92.2276 123.125 92.4296C122.724 92.3286 122.724 91.5209 122.423 91.1171C122.021 90.8142 122.523 92.0257 122.523 92.3286L122.624 92.1267C122.724 93.3382 121.821 92.1267 121.62 92.9344C121.52 92.6315 121.62 92.7324 121.72 92.6315C121.319 92.1267 121.62 92.8334 121.52 93.0353C121.319 93.0353 121.018 92.8334 120.918 92.1267C120.616 92.0257 121.018 92.5305 121.018 92.8334L120.918 92.7325V93.5401C120.717 93.3382 120.315 93.0353 120.115 92.4296C119.713 92.6315 120.416 94.0449 120.215 94.3478C119.914 94.0449 120.115 93.843 120.014 93.5401L119.713 93.6411C119.613 92.8334 119.914 93.1363 119.613 92.2277C119.613 93.2373 119.412 92.5305 119.212 93.2373V93.3382C119.212 94.0449 118.81 93.6411 118.609 93.843C118.609 93.4392 118.81 93.3382 118.911 93.1363C118.609 92.8334 118.208 93.3382 118.208 94.1459C118.108 94.0449 117.706 93.742 117.807 93.4392C117.405 93.4392 117.907 94.6507 117.506 94.4488L117.405 93.843C116.803 93.0353 116.803 94.8526 116.301 94.0449L116.402 94.8526C116.301 94.5497 116.101 94.4488 116 94.1459L116.101 93.843C115.8 93.2372 116 94.4488 115.8 94.0449C115.8 94.2468 116.101 94.7516 116.201 95.0545C116.904 94.4488 118.007 95.3574 118.609 94.3478C118.509 94.2468 118.509 94.1459 118.509 94.0449C118.609 94.2468 118.71 93.944 118.81 94.3478V94.4488C119.011 94.2469 119.412 95.0545 119.513 95.0545C119.412 94.5497 120.014 95.1555 119.713 94.3478L120.014 94.8526C120.014 94.5497 119.814 94.1459 119.914 93.944C120.115 93.944 120.215 94.3478 120.115 94.5497C120.717 94.7516 121.419 94.4488 121.921 94.0449V94.4488C122.122 94.6507 122.222 93.5401 122.423 94.6507C122.523 94.1459 123.226 94.7516 122.925 93.6411C123.426 94.6507 123.727 93.843 124.028 93.6411C123.627 92.7324 124.229 93.2372 124.229 92.8334C124.53 93.5401 124.129 93.6411 124.33 94.1459C124.33 92.9344 125.734 94.5497 125.233 92.7325C125.333 92.8334 125.333 92.8334 125.333 92.9344C125.433 92.9344 125.634 93.1363 125.734 93.2373C125.634 92.9344 125.433 92.8334 125.534 92.6315C125.734 92.6315 125.835 93.1363 125.935 93.3382C126.035 92.8334 126.437 92.5305 126.136 91.7228C126.337 91.9248 126.537 92.2276 126.537 92.4296C126.738 91.7228 126.939 92.3286 127.24 91.8238C127.139 91.9248 127.44 92.6315 127.139 92.4296C127.741 93.3382 127.741 92.0257 128.243 92.3286L128.143 91.6219C128.344 91.42 128.544 92.0257 128.544 92.3286C129.046 92.5305 129.046 92.1267 129.347 91.9248C129.447 92.0257 129.447 92.1267 129.347 92.1267L129.748 91.9248C129.748 91.7228 129.748 91.319 129.548 91.0161C129.046 91.42 129.046 91.7228 128.745 91.5209Z" fill="#443730"/>
<path d="M124.329 89.7036C124.43 89.8045 124.531 89.9054 124.531 89.9054C124.43 89.8045 124.329 89.7036 124.329 89.7036Z" fill="#443730"/>
<path d="M131.855 88.1893C131.353 87.2806 131.755 88.4921 131.454 88.2902C131.554 88.0883 131.253 87.5835 131.052 87.2806C131.454 88.5931 130.751 87.1797 130.45 87.5835C130.25 87.1797 130.35 87.0787 130.149 86.5739C130.149 86.9777 129.949 87.2806 130.25 87.9873C129.949 88.1893 129.547 87.9874 129.447 88.1893C129.547 87.7854 129.146 87.4825 129.045 86.7758C129.246 87.6845 129.146 88.896 129.246 90.1075C128.845 89.4008 128.845 89.2998 128.544 88.5931C127.942 88.2902 128.744 89.4008 128.243 89.2998L128.443 89.4008C128.343 89.7037 128.644 90.4104 128.845 91.0161L129.246 90.7133C129.447 91.2181 129.146 91.319 129.146 91.42C129.246 92.1267 129.547 91.7229 129.748 92.2277C129.647 91.8238 129.848 91.8238 129.949 91.6219L130.049 91.9248C130.45 92.1267 130.149 91.319 130.35 91.319C130.45 91.42 130.45 91.42 130.45 91.5209C130.35 91.2181 130.25 90.7133 130.35 90.6123L130.25 90.7133C130.049 90.0066 130.25 89.4008 129.647 88.795H130.149C130.45 89.5017 130.952 90.7133 130.651 90.9152L130.751 91.2181C131.153 91.521 131.052 90.4104 130.551 89.8046C129.848 87.9873 131.253 89.4008 131.153 88.4921C131.454 88.9969 131.353 89.1989 131.454 89.6027C131.353 89.7037 131.353 89.8046 131.153 89.4008C130.852 89.9056 131.956 90.8142 131.454 90.9152C131.052 90.8142 131.353 90.0065 130.952 90.1075L131.353 91.5209C131.554 91.42 131.655 91.0161 131.755 90.8142C132.257 89.4008 133.36 89.8046 133.36 89.8046C134.665 88.896 135.97 87.8864 137.274 86.8768C137.575 86.372 137.776 86.372 137.073 85.0595C136.772 84.8576 136.672 85.1605 136.471 84.6557C136.772 85.1605 136.772 85.4633 136.471 85.5643C136.17 85.1605 136.471 85.2614 136.371 85.1605H136.271C136.17 84.9585 136.07 84.7566 136.17 84.6557C135.468 84.1509 135.167 84.5547 135.568 85.5643C135.066 85.2614 135.267 84.7566 135.066 84.3528C134.163 84.4537 133.762 84.7566 133.059 85.1605C133.561 85.9681 133.26 85.6653 133.561 86.372L133.36 86.0691C133.461 86.1701 133.662 86.7758 133.963 86.8768C133.16 86.4729 134.063 88.1893 133.963 88.795L133.762 88.3912C133.561 88.5931 133.461 88.6941 133.461 88.9969C132.658 88.3912 133.762 88.6941 133.059 87.6845V87.8864C132.859 87.4825 132.558 86.6749 132.558 86.372C132.558 87.2806 131.956 86.372 131.855 87.0787C131.655 86.5739 131.755 86.0691 131.855 85.8672C131.655 85.8672 131.654 86.372 131.454 85.9681L131.755 86.5739C131.554 86.7758 131.454 85.9681 131.253 85.6653C130.651 85.9681 132.156 87.5835 131.855 88.1893Z" fill="#443730"/>
<path d="M125.935 90.5113C126.036 90.5113 126.036 90.5113 126.137 90.4104C126.036 90.4104 125.935 90.4104 125.935 90.5113Z" fill="#443730"/>
<path d="M126.537 88.8959C126.537 88.795 126.437 88.6941 126.437 88.6941C126.537 88.6941 126.537 88.795 126.537 88.8959Z" fill="#443730"/>
<path d="M126.336 87.9873C126.437 88.2901 126.437 88.2901 126.538 88.6937C126.437 88.391 126.639 88.2901 126.336 87.9873Z" fill="#443730"/>
<path d="M108.072 93.4388L108.273 93.6407L108.374 92.7324C108.172 92.8333 108.273 93.4388 108.072 93.4388Z" fill="#443730"/>
<path d="M108.775 93.5399V92.8335L108.473 93.3381L108.775 93.5399C108.674 93.7417 108.775 93.8427 108.775 93.9436V93.5399Z" fill="#443730"/>
<path d="M109.677 94.6501C109.577 94.4483 109.677 94.0446 109.677 93.7419C109.376 93.5401 109.477 94.4483 109.276 94.2465C109.577 93.7419 109.075 93.8428 108.975 93.54C109.075 94.1455 109.276 94.5492 109.477 94.7511V94.3474C109.577 94.2465 109.577 94.4483 109.677 94.6501Z" fill="#443730"/>
<path d="M110.782 93.54L110.682 94.1456C110.581 93.8428 110.28 93.8428 110.28 93.2373C110.18 93.3382 110.18 93.641 110.18 93.8428C110.08 93.54 109.979 93.2373 109.879 93.7419C110.381 94.1456 110.28 94.2465 110.682 94.4483C110.682 94.5492 110.682 94.5492 110.581 94.5492L110.882 94.852C110.782 94.0446 111.083 93.9437 110.782 93.54Z" fill="#443730"/>
<path d="M111.283 93.9441C111.082 94.045 111.082 94.6505 111.183 94.9533L111.585 94.3478C111.384 94.4487 111.283 94.5496 111.283 93.9441Z" fill="#443730"/>
<path d="M111.484 93.944C111.585 94.2467 111.886 94.9531 111.886 94.2467C111.685 94.3476 111.685 93.4394 111.484 93.944Z" fill="#443730"/>
<path d="M113.089 94.2464L112.588 93.9436C112.387 93.1363 112.688 93.6409 112.788 93.2372C112.387 93.1363 112.588 93.3381 112.387 93.9436C112.287 93.9436 112.186 94.3473 112.086 94.5491C112.588 93.8427 112.889 95.861 113.089 94.2464Z" fill="#443730"/>
<path d="M112.187 93.54V93.9437L112.287 93.641L112.187 93.54Z" fill="#443730"/>
<path d="M114.194 95.0546C114.595 95.9632 114.595 94.4489 114.897 94.7517C114.897 94.8527 114.897 94.8527 114.897 95.0546L115.097 94.9537L115.198 95.1556C115.097 94.5498 115.298 94.3479 115.298 93.8431C114.897 93.2373 115.298 94.5498 114.997 93.9441C114.997 93.6412 114.997 93.2373 114.997 93.0354C114.897 93.3383 114.997 93.7421 114.997 94.045C114.897 94.146 114.796 93.8431 114.796 93.5402C114.696 93.944 114.897 94.7517 114.595 94.6508C114.294 94.146 114.595 93.8431 114.294 94.146C114.595 95.0546 113.993 94.045 113.993 94.6508C113.793 94.5498 113.492 93.944 113.492 93.6412C113.592 94.3479 113.492 94.9537 113.391 95.2565L113.692 94.6508L113.993 95.4585C113.793 94.8527 113.993 94.8527 114.194 95.0546Z" fill="#443730"/>
<path d="M113.191 93.3381V93.1363L113.09 92.8335L113.191 93.3381Z" fill="#443730"/>
<path d="M114.896 92.3284C114.795 92.3284 114.896 92.6312 114.896 92.6312V92.2275V92.3284Z" fill="#443730"/>
<path d="M115.197 92.8335L115.498 93.3381V92.9344L115.197 92.8335Z" fill="#443730"/>
<path d="M120.115 92.1268C119.913 91.9249 120.014 92.4295 120.115 92.8332C120.418 92.8332 120.014 92.3286 120.115 92.1268Z" fill="#443730"/>
<path d="M122.825 90.5113C122.523 90.2085 122.523 90.814 122.423 90.814C122.624 91.0159 122.825 90.814 122.825 90.5113Z" fill="#443730"/>
<path d="M123.326 88.1892C123.326 88.391 123.326 88.4919 123.426 88.4919L123.627 89.5011C124.029 89.8039 123.527 88.5929 123.326 88.1892Z" fill="#443730"/>
<path d="M124.63 87.4824L124.53 87.8861H124.63C124.731 88.2898 124.731 88.4916 124.831 88.7944C124.932 88.5925 124.932 88.1888 124.63 87.4824Z" fill="#443730"/>
<path d="M124.731 89.1989C124.731 89.098 124.832 89.098 124.731 89.1989C124.63 88.7952 124.731 88.997 124.731 89.1989Z" fill="#443730"/>
<path d="M124.932 88.9969V88.896C124.831 88.9969 124.831 88.9969 124.932 88.9969C124.932 89.1987 124.831 89.1987 124.932 88.9969Z" fill="#443730"/>
<path d="M125.032 87.8861L125.333 87.5833L125.132 87.4824C125.333 88.1888 124.831 87.2806 125.032 87.8861Z" fill="#443730"/>
<path d="M127.139 87.5832L127.44 88.0878C127.741 88.0878 127.44 86.7759 128.042 87.5832C127.741 87.2805 127.942 86.8768 127.54 86.7759C127.741 87.4823 127.44 87.6841 127.139 87.5832Z" fill="#443730"/>
<path d="M128.444 87.9874C128.444 88.1892 128.544 88.2902 128.746 88.3911C128.846 88.3911 128.846 88.0883 128.645 87.8865C128.846 88.6938 128.343 87.4828 128.444 87.9874Z" fill="#443730"/>
<path d="M129.548 87.482C129.448 87.482 129.448 87.5829 129.548 87.6838C129.749 87.5829 129.347 86.9774 129.247 86.4728C128.945 86.271 129.247 87.1792 129.548 87.482Z" fill="#443730"/>
<path d="M133.261 90.6121C132.959 90.1075 132.859 90.3093 132.859 90.5112C132.859 90.4103 133.06 90.5112 133.261 90.6121Z" fill="#443730"/>
<path d="M131.253 86.7757L131.052 86.6748L131.455 87.3812L131.253 86.7757Z" fill="#443730"/>
</g>
</g>
<mask id="mask1_4710_304" style="mask-type:luminance" maskUnits="userSpaceOnUse" x="43" y="85" width="27" height="14">
<path d="M69.1366 93.6409C69.1366 93.6409 52.679 99.0928 43.4467 98.6889C47.4608 90.1073 50.4713 85.4631 50.4713 85.4631C50.4713 85.4631 56.2917 90.915 69.1366 93.6409Z" fill="white"/>
</mask>
<g mask="url(#mask1_4710_304)">
<g opacity="0.88">
<path d="M57.3967 88.9968C57.3967 89.0977 57.2958 89.0978 57.1948 89.1987C57.1948 89.1987 57.2958 89.1987 57.3967 88.9968Z" fill="#443730"/>
<path d="M63.2158 91.4197L63.3168 91.1169C63.2158 91.2179 63.2158 91.3188 63.2158 91.4197Z" fill="#443730"/>
<path d="M56.0914 90.7131C55.9908 90.7131 55.8903 90.814 55.7897 91.0159L56.0914 90.7131Z" fill="#443730"/>
<path d="M51.8771 86.3718C51.7762 86.2709 51.8771 86.2709 51.8771 86.3718H51.7761C51.6752 86.3718 51.7762 86.3718 51.8771 86.3718Z" fill="#443730"/>
<path d="M47.5626 88.593L47.3608 88.8958C47.4617 88.7949 47.5626 88.6939 47.5626 88.593Z" fill="#443730"/>
<path d="M52.6801 85.7661C52.5792 85.7661 52.5792 85.867 52.4783 85.9679C52.5792 85.867 52.6801 85.867 52.6801 85.7661Z" fill="#443730"/>
<path d="M57.3956 88.8958C57.3956 88.9958 57.3956 88.9957 57.2956 88.9957C57.3956 88.9957 57.3956 88.8958 57.3956 88.8958Z" fill="#443730"/>
<path d="M65.5235 91.9245C65.6244 91.9245 65.6244 91.9245 65.7254 91.8236C65.6244 91.7227 65.6244 91.7227 65.5235 91.9245Z" fill="#443730"/>
<path d="M53.5821 87.3815C53.281 88.2902 53.3814 87.2806 52.98 88.1892C53.1807 88.0882 53.281 87.9873 53.1807 88.3911C52.8796 88.795 52.98 88.2902 52.5786 88.8959L52.8796 88.694C52.8796 89.0978 52.4782 89.6026 52.5786 89.6026C53.1807 88.694 52.8796 90.2084 53.0803 90.1074L52.98 90.2084V90.8142C52.98 90.8142 52.98 90.8142 52.98 90.9151C52.98 90.8142 53.0803 90.8142 53.0803 90.7132C52.98 91.218 52.98 91.6218 53.281 91.6218C53.5821 91.117 53.9835 91.7228 54.2845 91.319C54.1842 91.4199 54.0838 91.4199 53.9835 91.218L54.2845 90.6122C54.4852 90.7132 54.0838 91.218 54.3849 90.9151C54.6859 90.0065 54.0838 90.8142 53.9835 90.6122C54.0838 90.4103 54.2845 90.3094 54.3849 90.2084C54.0838 90.1074 53.9835 89.7036 53.4817 90.5113C53.4817 90.3094 53.6824 89.9055 53.7828 89.9055C53.3814 90.3094 53.8831 89.2998 53.4817 89.7036C53.8831 88.8959 54.0838 89.4007 54.3849 88.9969C54.3849 89.8046 54.8866 89.2998 55.288 89.1988C55.0873 89.8046 54.6859 90.3094 54.5856 90.7132C54.6859 91.218 54.987 90.5113 55.288 90.2084C55.3884 90.5113 54.8866 91.218 55.1877 91.4199L54.8866 91.7228C54.6859 92.6315 55.1877 91.4199 55.288 91.7228C55.288 91.5209 55.3884 91.218 55.288 91.218C55.3884 90.9151 55.5891 90.8142 55.5891 90.8142C55.7898 90.4103 55.9905 90.0065 56.0908 90.2084C55.7898 90.7132 56.0908 90.6122 56.0908 90.9151L55.9905 91.0161C56.1912 90.9151 56.2916 91.0161 56.4923 90.9151L56.3919 91.0161C56.5926 90.8142 56.8937 90.2084 56.994 90.4103C56.8937 90.7132 56.3919 91.319 56.693 91.218C56.4923 91.6219 56.2916 91.5209 56.1912 91.319C56.2916 91.5209 56.1912 92.2276 55.8901 92.1266C55.7898 92.6314 56.1912 92.0257 56.1912 92.2276C56.1912 92.0257 56.2916 91.9247 56.3919 91.7228C56.1912 92.4295 56.7933 91.9247 56.8937 91.4199L56.5926 91.7228C56.7933 91.218 57.0944 90.9151 57.1947 90.6122C56.994 91.5209 57.7968 90.4103 57.6965 91.117L57.7968 90.6122C58.0979 91.0161 58.7 90.1074 59.2017 90.0065C59.001 90.2084 58.7 91.218 58.4993 90.8142C58.8003 91.117 58.2986 91.8238 58.2986 92.3286C58.4993 92.7324 58.7 91.5209 58.9007 91.218L58.5996 91.319C59.2017 90.3094 59.3021 91.8238 59.9042 91.218C59.8038 91.5209 59.8039 91.319 59.7035 91.4199C59.7035 92.0257 59.9042 91.319 60.1049 91.218C60.3056 91.319 60.406 91.7228 60.1049 92.3286C60.3056 92.5305 60.2053 91.9247 60.406 91.7228V91.9247L60.8074 91.218C60.9077 91.5209 61.0081 91.9247 60.9077 92.6314C61.4095 92.6314 61.5098 91.117 61.9112 90.9151C62.0116 91.319 61.7105 91.4199 61.6102 91.7228H61.9112C61.6102 92.4295 61.5098 92.0257 61.2088 92.9343C61.7105 92.0257 61.6102 92.7324 62.0116 92.2276V92.1266C62.3126 91.5209 62.5133 92.0257 62.714 92.0257C62.5133 92.4295 62.3126 92.3286 62.2123 92.5305C62.3126 92.9343 62.9147 92.7324 63.3161 91.9247C63.4165 92.1266 63.5168 92.4295 63.3161 92.7324C63.7175 92.9343 63.7176 91.6218 64.0186 91.9247L63.8179 92.5305C64.0186 93.5401 64.7211 91.9247 64.9218 92.7324L65.1225 92.0257C65.1225 92.3286 65.2228 92.5305 65.2228 92.8334L65.0221 93.0353C65.0221 93.742 65.3232 92.4295 65.4235 92.9343C65.4235 92.7324 65.4235 92.1266 65.4235 91.9247C64.5204 92.2276 64.0186 91.0161 63.1154 91.5209C63.1154 91.6218 63.1154 91.7228 63.1154 91.8238C63.1154 91.6218 62.9147 91.8238 63.0151 91.4199C62.8144 91.5209 62.8144 90.6122 62.714 90.5113C62.5133 91.0161 62.3126 90.2084 62.2123 91.117V90.5113C62.1119 90.8142 62.0116 91.218 61.9112 91.4199C61.8109 91.319 61.9112 91.0161 62.0116 90.8142C61.6102 90.3094 60.9077 90.2084 60.3056 90.3094L60.6067 89.9055C60.5063 89.7036 59.9042 90.5113 60.3056 89.5017C59.9042 89.8046 59.7035 88.9969 59.3021 90.1074C59.5028 88.9969 58.8003 89.5017 58.3989 89.5017C58.1982 90.4103 57.9975 89.6026 57.7968 90.0065C57.9975 89.2998 58.2986 89.4007 58.4993 88.8959C57.7968 89.9055 57.7968 87.7854 56.994 89.5017C56.994 89.4007 56.994 89.2998 56.994 89.2998C56.8937 89.2998 56.994 88.8959 56.8937 88.795C56.693 89.0978 56.7933 89.2998 56.5926 89.2998C56.4923 89.1988 56.7933 88.694 56.7933 88.4921C56.3919 88.795 55.8901 88.795 55.5891 89.5017C55.5891 89.2998 55.6894 88.795 55.7898 88.694C55.1877 89.0978 55.4887 88.3911 54.8866 88.593C55.0873 88.593 55.288 87.8863 55.3884 88.2902C55.5891 87.1796 54.6859 88.1892 54.5856 87.5834L54.1842 88.1892C53.9835 88.1892 54.1842 87.5834 54.3849 87.3815C54.1842 86.8767 53.8831 87.1796 53.6824 87.0786C53.6824 86.9777 53.7828 86.8767 53.7828 86.8767L53.4817 86.6748C53.3814 86.7758 53.0803 87.0786 52.98 87.4825C53.3814 87.1796 53.4817 86.9777 53.5821 87.3815Z" fill="#443730"/>
<path d="M53.1805 87.4824C53.0805 87.5824 53.1805 87.5824 53.1805 87.4824V87.4824Z" fill="#443730"/>
<path d="M49.1668 86.9773C48.7654 87.9869 49.4679 86.9773 49.4679 87.2802C49.2672 87.3812 48.9661 87.886 48.8657 88.1889C49.6686 87.0783 48.9661 88.5927 49.4679 88.4917C49.2672 88.8956 49.0664 88.8956 48.8657 89.2994C49.1668 89.0975 49.5682 89.0975 49.9696 88.3908C50.2707 88.4917 50.371 88.8956 50.6721 88.8956C50.2707 89.0975 50.2707 89.6023 49.8693 90.1071C50.4714 89.4004 51.4749 88.6937 52.2777 87.886C51.9766 88.6937 51.9766 88.7946 51.5752 89.4004C51.7759 90.1071 51.9766 88.7946 52.2777 89.0975L52.1773 88.8956C52.4784 88.7946 52.7794 87.9869 53.0805 87.5831L52.5787 87.4821C52.7794 86.9773 53.0805 87.1793 53.1808 87.0783C53.5823 86.4725 53.1808 86.5735 53.3815 86.0687C53.1808 86.4725 52.9801 86.2706 52.8798 86.3716L52.9801 86.0687C52.8798 85.6649 52.4784 86.3716 52.2777 86.2706C52.2777 86.1697 52.2777 86.1697 52.378 86.0687C52.1773 86.3716 51.8763 86.6745 51.7759 86.7754H51.8763C51.3745 87.3812 50.7724 87.5831 50.6721 88.4917L50.371 88.0879C50.7724 87.3812 51.3745 86.2706 51.6756 86.3716L51.8763 86.0687C51.8763 85.5639 51.0735 86.3716 50.8728 87.0783C49.7689 88.6937 50.1703 86.7754 49.4679 87.3812C49.6686 86.8764 49.9696 86.7754 50.1703 86.4725C50.2707 86.4725 50.371 86.4725 50.1703 86.8764C50.6721 86.7754 50.8728 85.362 51.1738 85.7658C51.2742 86.0687 50.4714 86.3716 50.7724 86.5735L51.6756 85.362C51.4749 85.261 51.1738 85.4629 50.9731 85.4629C49.6686 85.8668 49.3675 84.7562 49.3675 84.7562C47.9626 84.1505 46.658 83.5447 45.3534 82.838C44.8517 82.737 44.7513 82.6361 43.7478 83.6457C43.6475 83.9485 43.9485 84.0495 43.6475 84.3524C44.0489 83.9485 44.3499 83.8476 44.4503 83.9485C44.1492 84.3524 44.1492 84.0495 44.1492 84.1505V84.2514C43.9485 84.4533 43.8482 84.5543 43.7478 84.5543C43.5471 85.362 44.0489 85.5639 44.8517 84.8572C44.7513 85.4629 44.2496 85.4629 43.9485 85.7658C44.4503 86.5735 44.952 86.7754 45.6545 87.2802C46.1563 86.4725 46.0559 86.7754 46.4573 86.3716L46.357 86.6745C46.4573 86.4725 46.8587 85.9677 46.7584 85.7658C46.7584 86.6745 47.8622 84.9581 48.364 84.7562L48.0629 85.1601C48.364 85.261 48.364 85.261 48.7654 85.1601C48.665 86.1697 48.364 85.0591 47.8622 86.1697L48.0629 86.0687C47.7619 86.4725 47.3605 87.0783 47.0594 87.2802C47.7619 86.7754 47.4608 87.886 48.1633 87.5831C47.8622 87.9869 47.2601 88.1889 47.1598 88.1889C47.2601 88.2898 47.6615 88.0879 47.4608 88.5927L47.7619 87.9869C48.0629 88.0879 47.4608 88.4917 47.2601 88.8956C48.0629 89.1985 48.5647 87.0783 49.1668 86.9773Z" fill="#443730"/>
<path d="M54.7873 90.0064C54.7873 89.9054 54.6864 89.9054 54.5855 90.0064C54.5855 90.0064 54.6864 90.0064 54.7873 90.0064Z" fill="#443730"/>
<path d="M53.0808 90.7131C53.0808 90.8141 52.9799 90.915 52.9799 90.915C53.0808 90.915 53.0808 90.8141 53.0808 90.7131Z" fill="#443730"/>
<path d="M52.6787 91.5205C52.7793 91.2178 52.8798 91.2178 53.081 90.915C52.8798 91.1169 52.6787 91.0159 52.6787 91.5205Z" fill="#443730"/>
<path d="M69.3373 94.4481C69.538 94.4481 69.7387 93.8426 69.6384 93.439L69.1366 93.8426C69.3373 93.8426 69.4377 93.8426 69.3373 94.4481Z" fill="#443730"/>
<path d="M69.0369 94.3475C69.0369 94.0447 68.9363 93.3383 68.7352 93.9438C68.9363 93.8429 68.7352 94.7511 69.0369 94.3475Z" fill="#443730"/>
<path d="M67.6314 93.5398L67.9324 94.0444C67.8321 94.8517 67.7317 94.2462 67.531 94.6499C67.8321 94.8517 67.8321 94.549 68.1331 94.1453C68.2335 94.2462 68.4342 93.8425 68.5345 93.6407C67.9324 94.1453 68.2335 92.1269 67.6314 93.5398Z" fill="#443730"/>
<path d="M68.334 94.5494L68.4346 94.1458L68.1329 94.4485L68.334 94.5494Z" fill="#443730"/>
<path d="M66.8287 92.5302C66.7284 91.521 66.3269 92.9338 66.1262 92.5302C66.1262 92.5302 66.1263 92.4292 66.2266 92.3283L66.0259 92.4293V92.2274C65.9256 92.8329 65.6245 92.9338 65.4238 93.4384C65.5241 94.1448 65.7248 92.732 65.7248 93.4384C65.6245 93.6403 65.5241 94.0439 65.4238 94.2458C65.6245 93.943 65.7248 93.6403 65.8252 93.3375C66.0259 93.3375 65.9255 93.6403 65.8252 93.8421C66.0259 93.5393 66.2266 92.732 66.4273 92.9338C66.5277 93.4384 66.2266 93.7412 66.5277 93.5393C66.5277 92.6311 66.8287 93.7412 67.0294 93.1357C67.2301 93.3375 67.2301 93.943 67.1298 94.2458C67.2301 93.5393 67.5312 92.9338 67.7319 92.732L67.2301 93.2366V92.4293C67.1298 92.8329 67.0294 92.732 66.8287 92.5302Z" fill="#443730"/>
<path d="M65.5238 94.1458L65.4238 94.2458C65.4238 94.2458 65.4238 94.2458 65.5238 94.1458Z" fill="#443730"/>
<path d="M67.2301 94.4487L67.1291 94.6506V94.8524L67.2301 94.4487Z" fill="#443730"/>
<path d="M65.2235 94.6504C65.2235 94.6504 65.3245 94.4486 65.3245 94.3477L65.1226 94.7513L65.2235 94.6504Z" fill="#443730"/>
<path d="M65.0231 94.1455V93.6409L64.9222 93.9436L65.0231 94.1455Z" fill="#443730"/>
<path d="M60.3058 92.4291C60.4064 92.7318 60.5069 92.2273 60.7081 91.8236C60.5069 91.6217 60.5069 92.2273 60.3058 92.4291Z" fill="#443730"/>
<path d="M57.0946 92.1264C57.0946 92.53 57.496 92.0255 57.5964 92.1264C57.5964 91.8236 57.2953 91.9245 57.0946 92.1264Z" fill="#443730"/>
<path d="M55.0871 93.5395C55.1875 93.3377 55.2878 93.3377 55.1875 93.2367L55.6892 92.3285C55.6892 91.8239 55.2878 93.1358 55.0871 93.5395Z" fill="#443730"/>
<path d="M53.5818 93.0347L53.9832 92.732L53.8828 92.6311C54.0835 92.2274 54.1839 92.1265 54.3846 91.8237C54.1839 92.0256 53.8828 92.3283 53.5818 93.0347Z" fill="#443730"/>
<path d="M54.6864 91.8237H54.5854C54.5854 91.9246 54.4845 92.1265 54.6864 91.8237Z" fill="#443730"/>
<path d="M54.4853 91.8237C54.4853 91.9247 54.5862 91.8237 54.4853 91.8237C54.5862 91.7228 54.5862 91.7228 54.4853 91.8237Z" fill="#443730"/>
<path d="M53.5831 92.5304L53.1808 92.4294L53.2814 92.6313C53.4825 92.1267 53.2814 93.1359 53.5831 92.5304Z" fill="#443730"/>
<path d="M51.6758 91.1166L51.8765 90.5111C51.6758 90.3092 50.7726 91.3184 51.0737 90.4102C51.0737 90.8138 50.5719 90.9147 50.7726 91.2175C51.174 90.8138 51.5755 90.9147 51.6758 91.1166Z" fill="#443730"/>
<path d="M51.1737 89.8043C51.2743 89.7034 51.2743 89.5015 51.3748 89.2997C51.2743 89.1988 51.0731 89.4006 51.0731 89.7034C51.3748 88.9969 50.872 90.3089 51.1737 89.8043Z" fill="#443730"/>
<path d="M49.9694 89.2995C50.0698 89.2995 50.1701 89.2995 50.1701 89.0977C49.9694 88.9968 49.6684 89.7032 49.3673 90.0059C49.3673 90.5105 49.9694 89.7032 49.9694 89.2995Z" fill="#443730"/>
<path d="M48.364 88.2897V88.4916L48.7663 87.7852L48.364 88.2897Z" fill="#443730"/>
<path d="M46.859 87.9873L46.4568 88.391H46.7585L46.859 87.9873Z" fill="#443730"/>
<path d="M46.6586 87.7852L46.4568 87.6843V87.8862C46.4568 88.088 46.6586 87.6843 46.6586 87.7852Z" fill="#443730"/>
<path d="M46.0559 87.4823C46.1564 87.4823 46.0559 87.5832 46.0559 87.5832L46.4581 87.3813L46.0559 87.4823Z" fill="#443730"/>
</g>
</g>
</svg>
